<svg width="28" height="28" viewBox="0 0 28 28" fill="none" xmlns="http://www.w3.org/2000/svg">
<g clip-path="url(#clip0_243_174)">
<path d="M8.71491 25.06C4.89991 23.2633 2.16991 19.5533 1.74991 15.1667H-8.58307e-05C0.594914 22.3533 6.60325 28 13.9416 28L14.7116 27.965L10.2666 23.52L8.71491 25.06ZM13.9416 0L13.1716 0.035L17.6166 4.48L19.1682 2.92833C22.9832 4.73667 25.7132 8.435 26.1216 12.8217H27.8716C27.2882 5.64667 21.2799 0 13.9416 0Z" fill="#3C6CB4"/>
<path d="M4.88494 19V8.81818H8.96165C9.7107 8.81818 10.3355 8.92921 10.8359 9.15128C11.3364 9.37334 11.7126 9.68158 11.9645 10.076C12.2164 10.4671 12.3423 10.9179 12.3423 11.4283C12.3423 11.826 12.2628 12.1757 12.1037 12.4773C11.9446 12.7756 11.7259 13.0208 11.4474 13.2131C11.1723 13.402 10.8575 13.5362 10.5028 13.6158V13.7152C10.8906 13.7318 11.2536 13.8411 11.5916 14.0433C11.933 14.2455 12.2098 14.5289 12.4219 14.8935C12.634 15.2547 12.7401 15.6856 12.7401 16.1861C12.7401 16.7263 12.6058 17.2086 12.3374 17.6328C12.0722 18.0537 11.6795 18.3868 11.1591 18.6321C10.6387 18.8774 9.9974 19 9.23509 19H4.88494ZM7.03764 17.2401H8.79261C9.39252 17.2401 9.83002 17.1257 10.1051 16.897C10.3802 16.665 10.5178 16.3568 10.5178 15.9723C10.5178 15.6906 10.4498 15.442 10.3139 15.2266C10.178 15.0111 9.98414 14.8421 9.73224 14.7195C9.48366 14.5968 9.18703 14.5355 8.84233 14.5355H7.03764V17.2401ZM7.03764 13.0788H8.63352C8.9285 13.0788 9.19034 13.0275 9.41903 12.9247C9.65104 12.8187 9.83333 12.6695 9.96591 12.4773C10.1018 12.285 10.1697 12.0547 10.1697 11.7862C10.1697 11.4183 10.0388 11.1217 9.77699 10.8963C9.51847 10.6709 9.15057 10.5582 8.6733 10.5582H7.03764V13.0788ZM14.1408 19V8.81818H18.2175C18.9666 8.81818 19.5913 8.92921 20.0918 9.15128C20.5923 9.37334 20.9685 9.68158 21.2203 10.076C21.4722 10.4671 21.5982 10.9179 21.5982 11.4283C21.5982 11.826 21.5186 12.1757 21.3596 12.4773C21.2005 12.7756 20.9817 13.0208 20.7033 13.2131C20.4282 13.402 20.1133 13.5362 19.7587 13.6158V13.7152C20.1465 13.7318 20.5094 13.8411 20.8475 14.0433C21.1889 14.2455 21.4656 14.5289 21.6777 14.8935C21.8899 15.2547 21.9959 15.6856 21.9959 16.1861C21.9959 16.7263 21.8617 17.2086 21.5932 17.6328C21.3281 18.0537 20.9353 18.3868 20.415 18.6321C19.8946 18.8774 19.2533 19 18.4909 19H14.1408ZM16.2935 17.2401H18.0485C18.6484 17.2401 19.0859 17.1257 19.361 16.897C19.6361 16.665 19.7736 16.3568 19.7736 15.9723C19.7736 15.6906 19.7057 15.442 19.5698 15.2266C19.4339 15.0111 19.24 14.8421 18.9881 14.7195C18.7395 14.5968 18.4429 14.5355 18.0982 14.5355H16.2935V17.2401ZM16.2935 13.0788H17.8894C18.1844 13.0788 18.4462 13.0275 18.6749 12.9247C18.9069 12.8187 19.0892 12.6695 19.2218 12.4773C19.3577 12.285 19.4256 12.0547 19.4256 11.7862C19.4256 11.4183 19.2947 11.1217 19.0328 10.8963C18.7743 10.6709 18.4064 10.5582 17.9292 10.5582H16.2935V13.0788Z" fill="#3C6CB4"/>
</g>
<defs>
<clipPath id="clip0_243_174">
<rect width="28" height="28" fill="white"/>
</clipPath>
</defs>
</svg>
