<svg width="28" height="28" viewBox="0 0 28 28" fill="none" xmlns="http://www.w3.org/2000/svg">
<g clip-path="url(#clip0_140_650)">
<path d="M8.71491 25.06C4.89991 23.2633 2.16991 19.5533 1.74991 15.1667H-8.58307e-05C0.594914 22.3533 6.60325 28 13.9416 28L14.7116 27.965L10.2666 23.52L8.71491 25.06ZM13.9416 0L13.1716 0.035L17.6166 4.48L19.1682 2.92833C22.9832 4.73667 25.7132 8.435 26.1216 12.8217H27.8716C27.2882 5.64667 21.2799 0 13.9416 0Z" fill="#3C6CB4"/>
<path d="M4.49716 10.593V8.81818H12.8594V10.593H9.74219V19H7.61435V10.593H4.49716ZM19.7599 11.7464C19.7202 11.3454 19.5495 11.0339 19.2479 10.8118C18.9463 10.5897 18.5369 10.4787 18.0199 10.4787C17.6686 10.4787 17.3719 10.5284 17.13 10.6278C16.888 10.724 16.7024 10.8582 16.5732 11.0305C16.4472 11.2029 16.3842 11.3984 16.3842 11.6172C16.3776 11.7995 16.4157 11.9586 16.4986 12.0945C16.5848 12.2304 16.7024 12.348 16.8516 12.4474C17.0007 12.5436 17.1731 12.6281 17.3686 12.701C17.5642 12.7706 17.773 12.8303 17.995 12.88L18.9098 13.0987C19.3539 13.1982 19.7616 13.3307 20.1328 13.4964C20.504 13.6622 20.8255 13.866 21.0973 14.108C21.3691 14.3499 21.5795 14.6349 21.7287 14.9631C21.8812 15.2912 21.959 15.6674 21.9624 16.0916C21.959 16.7147 21.8 17.255 21.4851 17.7124C21.1735 18.1664 20.7228 18.5194 20.1328 18.7713C19.5462 19.0199 18.8385 19.1442 18.0099 19.1442C17.188 19.1442 16.4721 19.0182 15.8622 18.7663C15.2557 18.5144 14.7817 18.1416 14.4403 17.6477C14.1023 17.1506 13.925 16.5357 13.9084 15.8033H15.9915C16.0147 16.1446 16.1125 16.4297 16.2848 16.6584C16.4605 16.8838 16.6941 17.0545 16.9858 17.1705C17.2808 17.2831 17.6139 17.3395 17.9851 17.3395C18.3497 17.3395 18.6662 17.2865 18.9347 17.1804C19.2064 17.0743 19.4169 16.9268 19.5661 16.7379C19.7152 16.549 19.7898 16.3319 19.7898 16.0866C19.7898 15.858 19.7218 15.6657 19.5859 15.5099C19.4534 15.3542 19.2578 15.2216 18.9993 15.1122C18.7441 15.0028 18.4309 14.9034 18.0597 14.8139L16.951 14.5355C16.0926 14.3267 15.4148 14.0002 14.9176 13.5561C14.4205 13.112 14.1735 12.5137 14.1768 11.7614C14.1735 11.1449 14.3376 10.6063 14.669 10.1456C15.0038 9.6849 15.4628 9.32528 16.0462 9.06676C16.6295 8.80824 17.2924 8.67898 18.0348 8.67898C18.7905 8.67898 19.45 8.80824 20.0135 9.06676C20.5803 9.32528 21.0211 9.6849 21.3359 10.1456C21.6508 10.6063 21.8132 11.1399 21.8232 11.7464H19.7599ZM17.4631 18.9602H18.4375L18.358 19.3928C18.6993 19.4458 18.9777 19.5734 19.1932 19.7756C19.4119 19.9777 19.523 20.2528 19.5263 20.6009C19.5296 21.0947 19.3009 21.4875 18.8402 21.7791C18.3795 22.0741 17.7332 22.2216 16.9013 22.2216L16.8814 21.277C17.299 21.277 17.6255 21.2256 17.8608 21.1229C18.0994 21.0234 18.2237 20.8677 18.2337 20.6555C18.2403 20.4534 18.1624 20.2992 18 20.1932C17.8376 20.0871 17.584 20.0125 17.2393 19.9695L17.4631 18.9602Z" fill="#D70303"/>
</g>
<defs>
<clipPath id="clip0_140_650">
<rect width="28" height="28" fill="white"/>
</clipPath>
</defs>
</svg>
