<svg width="75" height="75" viewBox="0 0 75 75" fill="none" xmlns="http://www.w3.org/2000/svg">
<circle cx="37.5" cy="37.5" r="37.5" fill="#D9D9D9"/>
<path d="M40.679 23.9091V53H34.5284V23.9091H40.679ZM37.6392 21.0966C36.7396 21.0966 35.9678 20.7983 35.3239 20.2017C34.6799 19.5956 34.358 18.8712 34.358 18.0284C34.358 17.1951 34.6799 16.4801 35.3239 15.8835C35.9678 15.2775 36.7348 14.9744 37.625 14.9744C38.5341 14.9744 39.3059 15.2775 39.9403 15.8835C40.5843 16.4801 40.9062 17.1951 40.9062 18.0284C40.9062 18.8712 40.5843 19.5956 39.9403 20.2017C39.3059 20.7983 38.5388 21.0966 37.6392 21.0966Z" fill="white"/>
</svg>
